<svg xmlns="http://www.w3.org/2000/svg" width="677" height="369" viewBox="0 0 677 369">
<g>
<path d="M 291.00 116.09 C291.00,116.59 290.55,117.00 290.00,117.00 C289.36,117.00 289.09,109.06 289.25,94.75 C289.49,73.39 289.59,72.35 291.84,68.74 C293.12,66.67 296.11,63.85 298.48,62.46 L 302.80 59.93 L 340.15 60.21 L 377.50 60.50 L 380.85 63.00 C384.77,65.93 386.70,69.29 387.57,74.70 C388.15,78.33 387.93,78.82 384.60,81.35 C382.63,82.86 380.68,85.31 380.27,86.79 C379.71,88.83 379.38,87.58 378.96,81.73 C378.25,71.92 376.57,69.88 368.66,69.22 C363.52,68.80 363.09,68.94 361.37,71.63 C360.37,73.21 359.09,74.83 358.52,75.23 C357.96,75.64 349.06,75.98 338.75,75.98 C337.69,75.99 336.68,75.99 335.73,75.99 C324.44,76.01 321.06,76.01 318.78,74.44 C317.61,73.63 316.72,72.41 315.21,70.57 C312.81,67.65 303.18,69.09 300.36,72.79 C299.43,74.02 299.05,78.83 299.03,89.78 L 299.00 105.06 L 295.00 110.12 C292.80,112.90 291.00,115.59 291.00,116.09 ZM 357.09 137.49 C348.11,147.94 339.79,157.74 338.59,159.26 L 336.42 162.03 L 325.02 150.47 L 313.61 138.92 L 317.69 134.84 L 321.76 130.77 L 335.08 143.57 L 358.92 120.04 C378.18,101.02 383.17,95.54 384.90,91.47 C386.63,87.43 388.27,85.62 393.28,82.22 C396.71,79.90 399.99,78.00 400.58,78.00 C401.17,78.00 402.67,79.09 403.92,80.41 L 406.19 82.83 L 402.11 89.81 C398.80,95.47 397.04,97.35 392.77,99.76 C386.61,103.24 385.65,104.25 357.09,137.49 ZM 283.68 211.96 C280.44,213.16 280.22,213.16 277.39,212.02 C272.48,210.04 269.52,202.93 271.97,199.00 C272.48,198.18 280.44,189.96 289.65,180.75 C300.68,169.72 307.12,164.00 308.50,164.00 C311.47,164.00 313.00,162.11 313.00,158.42 C313.00,156.67 313.70,154.66 314.57,153.95 C315.91,152.83 317.14,153.66 323.31,159.83 C329.36,165.88 330.32,167.28 329.39,168.75 C328.78,169.73 326.59,170.72 324.43,171.00 C321.11,171.43 320.49,171.92 319.94,174.50 C319.17,178.16 288.00,210.36 283.68,211.96 ZM 379.25 224.06 L 374.61 227.00 L 339.05 226.96 C308.58,226.93 303.07,226.69 300.50,225.33 C296.32,223.13 294.04,220.98 292.30,217.61 C290.84,214.79 290.90,214.63 294.90,210.63 C298.99,206.54 299.00,206.53 299.00,209.21 C299.00,210.68 300.09,213.15 301.41,214.69 L 303.82 217.50 L 337.11 217.79 C361.01,218.00 371.20,217.75 373.24,216.90 C378.12,214.88 379.00,211.67 379.00,195.89 C379.00,181.92 379.04,181.63 381.75,178.16 C383.26,176.22 385.29,173.25 386.25,171.57 C387.94,168.59 387.99,169.17 387.75,191.50 C387.46,217.86 387.16,219.04 379.25,224.06 ZM 290.69 106.75 C292.00,110.19 296.08,106.82 295.99,102.37 C295.96,100.79 296.23,93.88 296.59,87.00 C297.17,75.88 297.50,74.14 299.67,71.25 C302.00,68.13 302.39,68.00 308.98,68.00 C315.22,68.00 316.05,68.24 317.93,70.63 C320.64,74.08 325.19,74.90 341.87,74.96 L 355.23 75.00 L 358.37 71.61 C364.88,64.58 376.93,66.50 380.31,75.12 C381.94,79.25 383.49,79.75 385.38,76.76 C386.11,75.61 386.02,74.30 385.09,72.32 C384.36,70.77 383.45,68.82 383.07,68.00 C382.69,67.18 380.15,65.38 377.44,64.00 C372.50,61.50 372.48,61.50 338.73,61.19 C305.95,60.89 304.84,60.94 300.69,63.01 C297.69,64.51 295.66,66.53 293.84,69.82 C291.46,74.13 291.22,75.73 290.74,90.00 C290.45,98.53 290.43,106.06 290.69,106.75 ZM 277.05 209.57 C278.40,210.32 280.28,210.95 281.22,210.96 C283.77,211.02 316.09,178.68 318.51,173.66 C320.06,170.45 321.16,169.43 323.32,169.18 C324.86,169.00 326.37,168.21 326.67,167.42 C327.38,165.57 318.50,156.75 316.36,157.18 C315.48,157.36 314.25,159.05 313.63,160.94 C312.78,163.52 311.74,164.58 309.46,165.17 C307.59,165.65 303.33,169.08 298.46,174.03 C294.08,178.48 286.56,186.00 281.75,190.75 C275.12,197.29 273.02,200.00 273.07,201.94 C273.18,205.83 274.35,208.08 277.05,209.57 ZM 325.57 149.02 C331.86,155.44 334.65,157.64 336.03,157.28 C337.99,156.77 342.14,152.42 352.50,140.02 C355.80,136.07 361.47,129.55 365.09,125.53 C368.72,121.51 373.43,116.03 375.56,113.36 C383.79,103.06 386.51,100.42 391.39,98.00 C396.94,95.25 401.78,88.70 401.92,83.75 C401.99,81.52 401.57,81.01 399.75,81.07 C395.98,81.18 388.89,87.15 385.85,92.77 C384.30,95.65 383.26,98.00 383.55,98.00 C383.83,98.00 382.59,99.38 380.78,101.07 C378.98,102.75 376.33,105.29 374.89,106.71 C373.46,108.12 371.74,109.78 371.08,110.39 C369.51,111.82 363.43,117.90 362.34,119.12 C359.80,121.97 335.41,144.99 334.94,144.99 C334.63,145.00 332.15,142.98 329.44,140.51 C323.48,135.09 320.25,133.94 318.34,136.54 C317.60,137.55 317.00,138.80 317.00,139.32 C317.00,139.84 320.86,144.20 325.57,149.02 ZM 304.58 224.52 C308.65,225.36 320.05,225.68 341.00,225.54 C377.64,225.30 379.61,224.85 384.06,215.64 C385.73,212.19 386.00,209.42 386.00,195.92 C386.00,183.24 385.73,180.11 384.57,179.67 C381.81,178.61 381.12,181.70 380.81,196.70 C380.53,210.23 380.28,212.16 378.40,214.68 C374.71,219.65 371.83,220.00 336.70,219.74 L 304.50 219.50 L 299.85 216.13 C293.06,211.21 290.30,213.95 295.83,220.13 C297.97,222.53 300.07,223.59 304.58,224.52 ZM 349.91 191.46 C343.03,193.08 336.03,193.29 332.00,192.00 C330.26,191.44 331.94,191.16 337.50,191.08 C348.83,190.91 360.12,186.84 367.80,180.15 C375.89,173.11 378.56,169.99 379.88,166.06 C380.51,164.18 381.62,161.93 382.34,161.06 C384.06,159.02 386.00,150.08 386.00,144.17 C386.00,139.42 383.75,127.03 382.53,125.05 C382.16,124.46 381.44,124.23 380.93,124.54 C380.42,124.86 380.00,124.59 380.00,123.94 C380.00,123.08 379.56,123.12 378.41,124.07 C377.22,125.06 376.98,126.39 377.46,129.44 C377.80,131.67 378.33,137.60 378.63,142.60 C379.12,150.60 378.90,152.36 376.89,157.10 C374.39,163.01 368.65,171.30 364.79,174.60 C356.97,181.28 345.38,184.61 333.34,183.64 C327.13,183.14 325.09,183.32 323.52,184.53 C321.12,186.38 322.36,189.08 326.09,190.13 C327.75,190.59 327.94,190.83 326.72,190.90 C325.74,190.96 323.32,190.33 321.35,189.50 L 317.76 188.00 L 321.13 184.06 C323.57,181.20 325.05,180.25 326.50,180.62 C327.60,180.90 330.08,181.54 332.00,182.04 C342.57,184.79 356.08,180.61 365.34,171.75 C374.72,162.77 379.00,150.00 376.94,137.12 C376.38,133.60 375.44,129.83 374.87,128.75 C374.00,127.12 374.38,126.20 377.10,123.39 C378.91,121.53 380.74,120.00 381.17,120.00 C382.64,120.00 385.92,128.71 387.03,135.60 C389.57,151.36 384.66,166.55 373.24,178.20 C366.69,184.89 358.83,189.36 349.91,191.46 ZM 301.51 159.78 C301.17,160.73 299.65,162.48 298.12,163.69 L 295.34 165.87 L 293.21 161.50 C292.04,159.09 290.86,154.73 290.58,151.81 L 290.07 146.50 L 291.79 153.00 C292.74,156.57 294.03,160.38 294.66,161.45 C295.67,163.17 296.01,163.23 297.52,161.99 C299.02,160.74 299.15,159.27 298.53,149.83 C297.75,137.73 299.00,129.71 302.55,124.00 C305.55,119.17 316.47,108.00 318.19,108.00 C318.97,108.00 320.11,107.49 320.72,106.88 C321.34,106.26 325.14,105.01 329.17,104.10 C335.89,102.58 336.53,102.21 336.81,99.75 C337.07,97.59 336.63,96.95 334.58,96.43 C333.18,96.08 330.56,96.32 328.77,96.97 C326.97,97.62 324.43,98.36 323.13,98.62 C316.75,99.87 305.06,108.33 302.00,113.90 C301.17,115.40 299.23,118.27 297.67,120.27 C295.09,123.58 291.97,133.14 290.74,141.52 C290.41,143.74 290.26,143.36 290.16,140.00 C289.86,130.00 295.12,117.92 303.39,109.65 C311.97,101.08 320.63,96.91 334.81,94.53 L 339.11 93.81 L 338.50 104.50 L 333.36 105.13 C321.37,106.59 308.47,116.10 303.53,127.12 C300.19,134.55 299.25,143.52 300.92,152.01 C301.58,155.34 301.84,158.84 301.51,159.78 ZM 363.20 107.31 C361.93,108.53 361.20,109.27 360.33,109.55 C359.00,109.96 357.33,109.28 352.91,107.47 C352.68,107.38 352.44,107.28 352.19,107.18 C346.81,104.98 345.95,104.29 346.42,102.55 C346.72,101.42 346.98,99.43 346.99,98.12 C347.00,95.91 347.30,95.78 351.06,96.28 C356.04,96.95 366.00,101.69 366.00,103.39 C366.00,104.07 364.74,105.84 363.20,107.31 ZM 297.41 191.25 C289.93,198.54 283.24,204.63 282.53,204.80 C281.21,205.11 278.00,202.47 278.00,201.07 C278.00,200.64 279.13,199.07 280.52,197.58 C281.90,196.08 282.78,194.45 282.46,193.94 C282.15,193.44 282.49,193.25 283.22,193.53 C283.98,193.82 285.31,192.74 286.33,191.02 C287.31,189.36 288.43,188.00 288.81,188.00 C289.19,187.99 293.27,184.39 297.89,180.00 C306.01,172.25 308.21,170.92 309.49,172.99 C309.83,173.53 309.52,173.75 308.80,173.48 C308.05,173.19 301.55,178.93 293.57,186.93 C281.31,199.21 279.81,201.07 281.00,202.50 C282.20,203.95 283.93,202.54 296.67,189.83 C304.55,181.96 311.00,176.08 311.00,176.77 C311.00,177.45 304.88,183.97 297.41,191.25 ZM 351.25 104.88 C356.34,108.14 363.00,107.32 363.00,103.44 C363.00,102.17 352.97,98.00 349.91,98.00 C346.62,98.00 347.49,102.48 351.25,104.88 Z" fill="rgb(131,68,201)"/>
<path d="M 290.69 106.75 C290.43,106.06 290.45,98.53 290.74,90.00 C291.22,75.73 291.46,74.13 293.84,69.82 C295.66,66.53 297.69,64.51 300.69,63.01 C304.84,60.94 305.95,60.89 338.73,61.19 C372.48,61.50 372.50,61.50 377.44,64.00 C380.15,65.38 382.69,67.18 383.07,68.00 C383.45,68.82 384.36,70.77 385.09,72.32 C386.02,74.30 386.11,75.61 385.38,76.76 C383.49,79.75 381.94,79.25 380.31,75.12 C376.93,66.50 364.88,64.58 358.37,71.61 L 355.23 75.00 L 341.87 74.96 C325.19,74.90 320.64,74.08 317.93,70.63 C316.05,68.24 315.22,68.00 308.98,68.00 C302.39,68.00 302.00,68.13 299.67,71.25 C297.50,74.14 297.17,75.88 296.59,87.00 C296.23,93.88 295.96,100.79 295.99,102.37 C296.08,106.82 292.00,110.19 290.69,106.75 ZM 277.05 209.57 C274.35,208.08 273.18,205.83 273.07,201.94 C273.02,200.00 275.12,197.29 281.75,190.75 C286.56,186.00 294.08,178.48 298.46,174.03 C303.33,169.08 307.59,165.65 309.46,165.17 C311.74,164.58 312.78,163.52 313.63,160.94 C314.25,159.05 315.48,157.36 316.36,157.18 C318.50,156.75 327.38,165.57 326.67,167.42 C326.37,168.21 324.86,169.00 323.32,169.18 C321.16,169.43 320.06,170.45 318.51,173.66 C316.09,178.68 283.77,211.02 281.22,210.96 C280.28,210.95 278.40,210.32 277.05,209.57 ZM 325.57 149.02 C320.86,144.20 317.00,139.84 317.00,139.32 C317.00,138.80 317.60,137.55 318.34,136.54 C320.25,133.94 323.48,135.09 329.44,140.51 C332.15,142.98 334.63,145.00 334.94,144.99 C335.41,144.99 359.80,121.97 362.34,119.12 C363.43,117.90 369.51,111.82 371.08,110.39 C371.74,109.78 373.46,108.12 374.89,106.71 C376.33,105.29 378.98,102.75 380.78,101.07 C382.59,99.38 383.83,98.00 383.55,98.00 C383.26,98.00 384.30,95.65 385.85,92.77 C388.89,87.15 395.98,81.18 399.75,81.07 C401.57,81.01 401.99,81.52 401.92,83.75 C401.78,88.70 396.94,95.25 391.39,98.00 C386.51,100.42 383.79,103.06 375.56,113.36 C373.43,116.03 368.72,121.51 365.09,125.53 C361.47,129.55 355.80,136.07 352.50,140.02 C342.14,152.42 337.99,156.77 336.03,157.28 C334.65,157.64 331.86,155.44 325.57,149.02 ZM 333.64 192.41 C328.39,191.66 322.23,190.20 320.03,189.01 C319.84,188.91 319.67,188.82 319.51,188.73 L 321.35 189.50 C323.32,190.33 325.74,190.96 326.72,190.90 C327.94,190.83 327.75,190.59 326.09,190.13 C322.36,189.08 321.12,186.38 323.52,184.53 C325.09,183.32 327.13,183.14 333.34,183.64 C345.38,184.61 356.97,181.28 364.79,174.60 C368.65,171.30 374.39,163.01 376.89,157.10 C378.90,152.36 379.12,150.60 378.63,142.60 C378.33,137.60 377.80,131.67 377.46,129.44 C376.98,126.39 377.22,125.06 378.41,124.07 C379.56,123.12 380.00,123.08 380.00,123.94 C380.00,124.59 380.42,124.86 380.93,124.54 C381.44,124.23 382.16,124.46 382.53,125.05 C383.75,127.03 386.00,139.42 386.00,144.17 C386.00,150.08 384.06,159.02 382.34,161.06 C381.62,161.93 380.51,164.18 379.88,166.06 C378.56,169.99 375.89,173.11 367.80,180.15 C360.12,186.84 348.83,190.91 337.50,191.08 C331.94,191.16 330.26,191.44 332.00,192.00 C332.50,192.16 333.05,192.30 333.64,192.41 ZM 304.58 224.52 C300.07,223.59 297.97,222.53 295.83,220.13 C290.30,213.95 293.06,211.21 299.85,216.13 L 304.50 219.50 L 336.70 219.74 C371.83,220.00 374.71,219.65 378.40,214.68 C380.28,212.16 380.53,210.23 380.81,196.70 C381.12,181.70 381.81,178.61 384.57,179.67 C385.73,180.11 386.00,183.24 386.00,195.92 C386.00,209.42 385.73,212.19 384.06,215.64 C379.61,224.85 377.64,225.30 341.00,225.54 C320.05,225.68 308.65,225.36 304.58,224.52 ZM 290.19 137.66 C290.15,138.45 290.14,139.23 290.16,140.00 C290.26,143.36 290.41,143.74 290.74,141.52 C291.97,133.14 295.09,123.58 297.67,120.27 C299.23,118.27 301.17,115.40 302.00,113.90 C305.06,108.33 316.75,99.87 323.13,98.62 C324.43,98.36 326.97,97.62 328.77,96.97 C330.56,96.32 333.18,96.08 334.58,96.43 C336.63,96.95 337.07,97.59 336.81,99.75 C336.53,102.21 335.89,102.58 329.17,104.10 C325.14,105.01 321.34,106.26 320.72,106.88 C320.11,107.49 318.97,108.00 318.19,108.00 C316.47,108.00 305.55,119.17 302.55,124.00 C299.00,129.71 297.75,137.73 298.53,149.83 C299.15,159.27 299.02,160.74 297.52,161.99 C296.01,163.23 295.67,163.17 294.66,161.45 C294.03,160.38 292.74,156.57 291.79,153.00 L 290.18 146.92 C289.98,143.78 289.98,140.58 290.19,137.66 ZM 297.41 191.25 C304.88,183.97 311.00,177.45 311.00,176.77 C311.00,176.12 305.17,181.40 297.82,188.68 C308.37,178.09 310.90,174.66 308.94,173.53 C309.56,173.72 309.81,173.50 309.49,172.99 C308.21,170.92 306.01,172.25 297.89,180.00 C293.27,184.39 289.19,187.99 288.81,188.00 C288.43,188.00 287.31,189.36 286.33,191.02 C285.31,192.74 283.98,193.82 283.22,193.53 C282.49,193.25 282.15,193.44 282.46,193.94 C282.78,194.45 281.90,196.08 280.52,197.58 C279.13,199.07 278.00,200.64 278.00,201.07 C278.00,202.47 281.21,205.11 282.53,204.80 C283.24,204.63 289.93,198.54 297.41,191.25 ZM 351.25 104.88 C347.49,102.48 346.62,98.00 349.91,98.00 C352.97,98.00 363.00,102.17 363.00,103.44 C363.00,107.32 356.34,108.14 351.25,104.88 ZM 344.68 192.42 C342.47,192.74 340.37,192.93 339.00,192.91 C338.38,192.90 337.68,192.86 336.93,192.80 C339.26,192.92 341.91,192.79 344.68,192.42 ZM 291.61 157.01 C292.07,158.71 292.64,160.33 293.21,161.50 L 295.34 165.87 L 293.03 161.19 C292.49,160.09 292.01,158.66 291.61,157.01 Z" fill="rgb(138,55,224)"/>
<path d="M 0.00 184.50 L 0.00 0.00 L 338.50 0.00 L 677.00 0.00 L 677.00 184.50 L 677.00 369.00 L 338.50 369.00 L 0.00 369.00 L 0.00 184.50 ZM 379.25 224.06 C387.16,219.04 387.46,217.86 387.75,191.50 C387.99,169.17 387.94,168.59 386.25,171.57 C385.29,173.25 383.26,176.22 381.75,178.16 C379.04,181.63 379.00,181.92 379.00,195.89 C379.00,211.67 378.12,214.88 373.24,216.90 C371.20,217.75 361.01,218.00 337.11,217.79 L 303.82 217.50 L 301.41 214.69 C300.09,213.15 299.00,210.68 299.00,209.21 C299.00,206.53 298.99,206.54 294.90,210.63 C290.90,214.63 290.84,214.79 292.30,217.61 C294.04,220.98 296.32,223.13 300.50,225.33 C303.07,226.69 308.58,226.93 339.05,226.96 L 374.61 227.00 L 379.25 224.06 ZM 283.68 211.96 C288.00,210.36 319.17,178.16 319.94,174.50 C320.49,171.92 321.11,171.43 324.43,171.00 C326.59,170.72 328.78,169.73 329.39,168.75 C330.32,167.28 329.36,165.88 323.31,159.83 C317.14,153.66 315.91,152.83 314.57,153.95 C313.70,154.66 313.00,156.67 313.00,158.42 C313.00,162.11 311.47,164.00 308.50,164.00 C307.12,164.00 300.68,169.72 289.65,180.75 C280.44,189.96 272.48,198.18 271.97,199.00 C269.52,202.93 272.48,210.04 277.39,212.02 C280.22,213.16 280.44,213.16 283.68,211.96 ZM 349.91 191.46 C358.83,189.36 366.69,184.89 373.24,178.20 C384.66,166.55 389.57,151.36 387.03,135.60 C385.92,128.71 382.64,120.00 381.17,120.00 C380.74,120.00 378.91,121.53 377.10,123.39 C374.38,126.20 374.00,127.12 374.87,128.75 C375.44,129.83 376.38,133.60 376.94,137.12 C379.00,150.00 374.72,162.77 365.34,171.75 C356.08,180.61 342.57,184.79 332.00,182.04 C330.08,181.54 327.60,180.90 326.50,180.62 C325.06,180.25 323.58,181.19 321.19,183.99 C317.91,187.84 317.90,187.88 320.03,189.01 C323.08,190.65 333.71,192.83 339.00,192.91 C341.48,192.94 346.38,192.29 349.91,191.46 ZM 301.51 159.78 C301.84,158.84 301.58,155.34 300.92,152.01 C299.25,143.52 300.19,134.55 303.53,127.12 C308.47,116.10 321.37,106.59 333.36,105.13 L 338.50 104.50 L 338.81 99.15 L 339.11 93.81 L 334.81 94.53 C320.62,96.91 311.97,101.08 303.39,109.66 C297.44,115.60 292.94,123.68 291.01,131.87 C289.08,140.05 290.13,155.30 293.03,161.19 L 295.34 165.87 L 298.12 163.69 C299.65,162.48 301.17,160.73 301.51,159.78 ZM 357.09 137.49 C385.65,104.25 386.61,103.24 392.77,99.76 C397.04,97.35 398.80,95.47 402.11,89.81 L 406.19 82.83 L 403.92 80.41 C402.67,79.09 401.17,78.00 400.58,78.00 C399.99,78.00 396.71,79.90 393.28,82.22 C388.27,85.62 386.63,87.43 384.90,91.47 C383.17,95.54 378.18,101.02 358.92,120.04 L 335.08 143.57 L 328.42 137.17 L 321.76 130.77 L 317.69 134.84 L 313.61 138.92 L 325.02 150.47 L 336.42 162.03 L 338.59 159.26 C339.79,157.74 348.11,147.94 357.09,137.49 ZM 291.00 116.09 C291.00,115.59 292.80,112.90 295.00,110.12 L 299.00 105.06 L 299.03 89.78 C299.05,78.83 299.43,74.02 300.36,72.79 C303.18,69.09 312.81,67.65 315.21,70.57 C319.93,76.32 318.54,76.00 338.75,75.98 C349.06,75.98 357.96,75.64 358.52,75.23 C359.09,74.83 360.37,73.21 361.37,71.63 C363.09,68.94 363.52,68.80 368.66,69.22 C376.57,69.88 378.25,71.92 378.96,81.73 C379.38,87.58 379.71,88.83 380.27,86.79 C380.68,85.31 382.63,82.86 384.60,81.35 C387.93,78.82 388.15,78.33 387.57,74.70 C386.70,69.29 384.77,65.93 380.85,63.00 L 377.50 60.50 L 340.15 60.21 L 302.80 59.93 L 298.48 62.46 C296.11,63.85 293.12,66.67 291.84,68.74 C289.59,72.35 289.49,73.39 289.25,94.75 C289.09,109.06 289.36,117.00 290.00,117.00 C290.55,117.00 291.00,116.59 291.00,116.09 ZM 363.20 107.31 C364.74,105.84 366.00,104.07 366.00,103.39 C366.00,101.69 356.04,96.95 351.06,96.28 C347.30,95.78 347.00,95.91 346.99,98.12 C346.98,99.43 346.72,101.42 346.42,102.55 C345.95,104.29 346.81,104.98 352.19,107.18 C360.26,110.47 359.90,110.47 363.20,107.31 ZM 281.00 202.50 C279.81,201.07 281.31,199.21 293.57,186.93 C301.22,179.27 307.93,173.14 308.49,173.33 C311.33,174.27 308.86,177.68 296.20,190.31 C283.88,202.60 282.20,203.95 281.00,202.50 Z" fill="rgb(254,254,254)"/>
</g>
</svg>